<?xml version="1.0" encoding="UTF-8" ?>
<svg version="1.1" width="96" height="48" xmlns="http://www.w3.org/2000/svg" shape-rendering="crispEdges">
<rect x="69" y="0" width="3" height="3" fill="#8E6655" />
<rect x="72" y="0" width="3" height="3" fill="#795241" />
<rect x="69" y="3" width="3" height="3" fill="#795241" />
<rect x="72" y="3" width="3" height="3" fill="#6D3F2C" />
<rect x="75" y="3" width="3" height="3" fill="#6D3F2C" />
<rect x="69" y="6" width="3" height="3" fill="#6D3F2C" />
<rect x="72" y="6" width="3" height="3" fill="#8E6655" />
<rect x="75" y="6" width="3" height="3" fill="#8E6655" />
<rect x="78" y="6" width="3" height="3" fill="#8E6655" />
<rect x="69" y="9" width="3" height="3" fill="#6D3F2C" />
<rect x="72" y="9" width="3" height="3" fill="#6D3F2C" />
<rect x="75" y="9" width="3" height="3" fill="#6D3F2C" />
<rect x="78" y="9" width="3" height="3" fill="#6D3F2C" />
<rect x="81" y="9" width="3" height="3" fill="#6D3F2C" />
<rect x="3" y="12" width="3" height="3" fill="#6D3F2C" />
<rect x="6" y="12" width="3" height="3" fill="#6D3F2C" />
<rect x="9" y="12" width="3" height="3" fill="#6D3F2C" />
<rect x="12" y="12" width="3" height="3" fill="#6D3F2C" />
<rect x="15" y="12" width="3" height="3" fill="#6D3F2C" />
<rect x="18" y="12" width="3" height="3" fill="#6D3F2C" />
<rect x="21" y="12" width="3" height="3" fill="#6D3F2C" />
<rect x="24" y="12" width="3" height="3" fill="#8E6655" />
<rect x="27" y="12" width="3" height="3" fill="#8E6655" />
<rect x="30" y="12" width="3" height="3" fill="#6D3F2C" />
<rect x="33" y="12" width="3" height="3" fill="#6D3F2C" />
<rect x="36" y="12" width="3" height="3" fill="#6D3F2C" />
<rect x="39" y="12" width="3" height="3" fill="#6D3F2C" />
<rect x="42" y="12" width="3" height="3" fill="#6D3F2C" />
<rect x="45" y="12" width="3" height="3" fill="#6D3F2C" />
<rect x="48" y="12" width="3" height="3" fill="#6D3F2C" />
<rect x="51" y="12" width="3" height="3" fill="#6D3F2C" />
<rect x="54" y="12" width="3" height="3" fill="#8E6655" />
<rect x="57" y="12" width="3" height="3" fill="#795241" />
<rect x="60" y="12" width="3" height="3" fill="#795241" />
<rect x="63" y="12" width="3" height="3" fill="#795241" />
<rect x="66" y="12" width="3" height="3" fill="#795241" />
<rect x="69" y="12" width="3" height="3" fill="#795241" />
<rect x="72" y="12" width="3" height="3" fill="#795241" />
<rect x="75" y="12" width="3" height="3" fill="#8E6655" />
<rect x="78" y="12" width="3" height="3" fill="#8E6655" />
<rect x="81" y="12" width="3" height="3" fill="#8E6655" />
<rect x="84" y="12" width="3" height="3" fill="#8E6655" />
<rect x="0" y="15" width="3" height="3" fill="#6D3F2C" />
<rect x="3" y="15" width="3" height="3" fill="#795241" />
<rect x="6" y="15" width="3" height="3" fill="#8E6655" />
<rect x="9" y="15" width="3" height="3" fill="#8E6655" />
<rect x="12" y="15" width="3" height="3" fill="#8E6655" />
<rect x="15" y="15" width="3" height="3" fill="#8E6655" />
<rect x="18" y="15" width="3" height="3" fill="#795241" />
<rect x="21" y="15" width="3" height="3" fill="#795241" />
<rect x="24" y="15" width="3" height="3" fill="#795241" />
<rect x="27" y="15" width="3" height="3" fill="#6D3F2C" />
<rect x="30" y="15" width="3" height="3" fill="#795241" />
<rect x="33" y="15" width="3" height="3" fill="#795241" />
<rect x="36" y="15" width="3" height="3" fill="#795241" />
<rect x="39" y="15" width="3" height="3" fill="#795241" />
<rect x="42" y="15" width="3" height="3" fill="#8E6655" />
<rect x="45" y="15" width="3" height="3" fill="#8E6655" />
<rect x="48" y="15" width="3" height="3" fill="#8E6655" />
<rect x="51" y="15" width="3" height="3" fill="#8E6655" />
<rect x="54" y="15" width="3" height="3" fill="#8E6655" />
<rect x="57" y="15" width="3" height="3" fill="#795241" />
<rect x="60" y="15" width="3" height="3" fill="#6D3F2C" />
<rect x="63" y="15" width="3" height="3" fill="#6D3F2C" />
<rect x="66" y="15" width="3" height="3" fill="#6D3F2C" />
<rect x="69" y="15" width="3" height="3" fill="#6D3F2C" />
<rect x="72" y="15" width="3" height="3" fill="#6D3F2C" />
<rect x="75" y="15" width="3" height="3" fill="#6D3F2C" />
<rect x="78" y="15" width="3" height="3" fill="#6D3F2C" />
<rect x="81" y="15" width="3" height="3" fill="#795241" />
<rect x="84" y="15" width="3" height="3" fill="#795241" />
<rect x="87" y="15" width="3" height="3" fill="#8E6655" />
<rect x="0" y="18" width="3" height="3" fill="#795241" />
<rect x="3" y="18" width="3" height="3" fill="#8E6655" />
<rect x="6" y="18" width="3" height="3" fill="#6D3F2C" />
<rect x="9" y="18" width="3" height="3" fill="#6D3F2C" />
<rect x="12" y="18" width="3" height="3" fill="#6D3F2C" />
<rect x="15" y="18" width="3" height="3" fill="#6D3F2C" />
<rect x="18" y="18" width="3" height="3" fill="#6D3F2C" />
<rect x="21" y="18" width="3" height="3" fill="#6D3F2C" />
<rect x="24" y="18" width="3" height="3" fill="#8E6655" />
<rect x="27" y="18" width="3" height="3" fill="#8E6655" />
<rect x="30" y="18" width="3" height="3" fill="#8E6655" />
<rect x="33" y="18" width="3" height="3" fill="#8E6655" />
<rect x="36" y="18" width="3" height="3" fill="#8E6655" />
<rect x="39" y="18" width="3" height="3" fill="#6D3F2C" />
<rect x="42" y="18" width="3" height="3" fill="#6D3F2C" />
<rect x="45" y="18" width="3" height="3" fill="#6D3F2C" />
<rect x="48" y="18" width="3" height="3" fill="#6D3F2C" />
<rect x="51" y="18" width="3" height="3" fill="#6D3F2C" />
<rect x="54" y="18" width="3" height="3" fill="#6D3F2C" />
<rect x="57" y="18" width="3" height="3" fill="#6D3F2C" />
<rect x="60" y="18" width="3" height="3" fill="#8E6655" />
<rect x="63" y="18" width="3" height="3" fill="#8E6655" />
<rect x="66" y="18" width="3" height="3" fill="#8E6655" />
<rect x="69" y="18" width="3" height="3" fill="#8E6655" />
<rect x="72" y="18" width="3" height="3" fill="#8E6655" />
<rect x="75" y="18" width="3" height="3" fill="#8E6655" />
<rect x="78" y="18" width="3" height="3" fill="#8E6655" />
<rect x="81" y="18" width="3" height="3" fill="#6D3F2C" />
<rect x="84" y="18" width="3" height="3" fill="#6D3F2C" />
<rect x="87" y="18" width="3" height="3" fill="#6D3F2C" />
<rect x="90" y="18" width="3" height="3" fill="#6D3F2C" />
<rect x="0" y="21" width="3" height="3" fill="#6D3F2C" />
<rect x="3" y="21" width="3" height="3" fill="#6D3F2C" />
<rect x="6" y="21" width="3" height="3" fill="#795241" />
<rect x="9" y="21" width="3" height="3" fill="#8E6655" />
<rect x="12" y="21" width="3" height="3" fill="#8E6655" />
<rect x="15" y="21" width="3" height="3" fill="#8E6655" />
<rect x="18" y="21" width="3" height="3" fill="#795241" />
<rect x="21" y="21" width="3" height="3" fill="#795241" />
<rect x="24" y="21" width="3" height="3" fill="#6D3F2C" />
<rect x="27" y="21" width="3" height="3" fill="#6D3F2C" />
<rect x="30" y="21" width="3" height="3" fill="#6D3F2C" />
<rect x="33" y="21" width="3" height="3" fill="#6D3F2C" />
<rect x="36" y="21" width="3" height="3" fill="#6D3F2C" />
<rect x="39" y="21" width="3" height="3" fill="#8E6655" />
<rect x="42" y="21" width="3" height="3" fill="#8E6655" />
<rect x="45" y="21" width="3" height="3" fill="#8E6655" />
<rect x="48" y="21" width="3" height="3" fill="#795241" />
<rect x="51" y="21" width="3" height="3" fill="#795241" />
<rect x="54" y="21" width="3" height="3" fill="#795241" />
<rect x="57" y="21" width="3" height="3" fill="#8E6655" />
<rect x="60" y="21" width="3" height="3" fill="#8E6655" />
<rect x="63" y="21" width="3" height="3" fill="#795241" />
<rect x="66" y="21" width="3" height="3" fill="#795241" />
<rect x="69" y="21" width="3" height="3" fill="#795241" />
<rect x="72" y="21" width="3" height="3" fill="#795241" />
<rect x="75" y="21" width="3" height="3" fill="#795241" />
<rect x="78" y="21" width="3" height="3" fill="#795241" />
<rect x="81" y="21" width="3" height="3" fill="#795241" />
<rect x="84" y="21" width="3" height="3" fill="#8E6655" />
<rect x="87" y="21" width="3" height="3" fill="#795241" />
<rect x="90" y="21" width="3" height="3" fill="#6D3F2C" />
<rect x="93" y="21" width="3" height="3" fill="#6D3F2C" />
<rect x="0" y="24" width="3" height="3" fill="#795241" />
<rect x="3" y="24" width="3" height="3" fill="#6D3F2C" />
<rect x="6" y="24" width="3" height="3" fill="#8E6655" />
<rect x="9" y="24" width="3" height="3" fill="#795241" />
<rect x="12" y="24" width="3" height="3" fill="#795241" />
<rect x="15" y="24" width="3" height="3" fill="#795241" />
<rect x="18" y="24" width="3" height="3" fill="#8E6655" />
<rect x="21" y="24" width="3" height="3" fill="#6D3F2C" />
<rect x="24" y="24" width="3" height="3" fill="#795241" />
<rect x="27" y="24" width="3" height="3" fill="#795241" />
<rect x="30" y="24" width="3" height="3" fill="#795241" />
<rect x="33" y="24" width="3" height="3" fill="#8E6655" />
<rect x="36" y="24" width="3" height="3" fill="#795241" />
<rect x="39" y="24" width="3" height="3" fill="#795241" />
<rect x="42" y="24" width="3" height="3" fill="#795241" />
<rect x="45" y="24" width="3" height="3" fill="#795241" />
<rect x="48" y="24" width="3" height="3" fill="#8E6655" />
<rect x="51" y="24" width="3" height="3" fill="#8E6655" />
<rect x="54" y="24" width="3" height="3" fill="#8E6655" />
<rect x="57" y="24" width="3" height="3" fill="#8E6655" />
<rect x="60" y="24" width="3" height="3" fill="#6D3F2C" />
<rect x="63" y="24" width="3" height="3" fill="#6D3F2C" />
<rect x="66" y="24" width="3" height="3" fill="#6D3F2C" />
<rect x="69" y="24" width="3" height="3" fill="#6D3F2C" />
<rect x="72" y="24" width="3" height="3" fill="#6D3F2C" />
<rect x="75" y="24" width="3" height="3" fill="#6D3F2C" />
<rect x="78" y="24" width="3" height="3" fill="#6D3F2C" />
<rect x="81" y="24" width="3" height="3" fill="#6D3F2C" />
<rect x="84" y="24" width="3" height="3" fill="#6D3F2C" />
<rect x="87" y="24" width="3" height="3" fill="#8E6655" />
<rect x="90" y="24" width="3" height="3" fill="#8E6655" />
<rect x="93" y="24" width="3" height="3" fill="#8E6655" />
<rect x="0" y="27" width="3" height="3" fill="#8E6655" />
<rect x="3" y="27" width="3" height="3" fill="#795241" />
<rect x="6" y="27" width="3" height="3" fill="#6D3F2C" />
<rect x="9" y="27" width="3" height="3" fill="#6D3F2C" />
<rect x="12" y="27" width="3" height="3" fill="#6D3F2C" />
<rect x="15" y="27" width="3" height="3" fill="#6D3F2C" />
<rect x="18" y="27" width="3" height="3" fill="#6D3F2C" />
<rect x="21" y="27" width="3" height="3" fill="#795241" />
<rect x="24" y="27" width="3" height="3" fill="#8E6655" />
<rect x="27" y="27" width="3" height="3" fill="#8E6655" />
<rect x="30" y="27" width="3" height="3" fill="#8E6655" />
<rect x="33" y="27" width="3" height="3" fill="#795241" />
<rect x="36" y="27" width="3" height="3" fill="#6D3F2C" />
<rect x="39" y="27" width="3" height="3" fill="#6D3F2C" />
<rect x="42" y="27" width="3" height="3" fill="#6D3F2C" />
<rect x="45" y="27" width="3" height="3" fill="#6D3F2C" />
<rect x="48" y="27" width="3" height="3" fill="#6D3F2C" />
<rect x="51" y="27" width="3" height="3" fill="#6D3F2C" />
<rect x="54" y="27" width="3" height="3" fill="#6D3F2C" />
<rect x="57" y="27" width="3" height="3" fill="#6D3F2C" />
<rect x="60" y="27" width="3" height="3" fill="#795241" />
<rect x="63" y="27" width="3" height="3" fill="#8E6655" />
<rect x="66" y="27" width="3" height="3" fill="#8E6655" />
<rect x="69" y="27" width="3" height="3" fill="#8E6655" />
<rect x="72" y="27" width="3" height="3" fill="#8E6655" />
<rect x="75" y="27" width="3" height="3" fill="#8E6655" />
<rect x="78" y="27" width="3" height="3" fill="#795241" />
<rect x="81" y="27" width="3" height="3" fill="#795241" />
<rect x="84" y="27" width="3" height="3" fill="#795241" />
<rect x="87" y="27" width="3" height="3" fill="#6D3F2C" />
<rect x="90" y="27" width="3" height="3" fill="#6D3F2C" />
<rect x="0" y="30" width="3" height="3" fill="#6D3F2C" />
<rect x="3" y="30" width="3" height="3" fill="#795241" />
<rect x="6" y="30" width="3" height="3" fill="#795241" />
<rect x="9" y="30" width="3" height="3" fill="#8E6655" />
<rect x="12" y="30" width="3" height="3" fill="#8E6655" />
<rect x="15" y="30" width="3" height="3" fill="#8E6655" />
<rect x="18" y="30" width="3" height="3" fill="#8E6655" />
<rect x="21" y="30" width="3" height="3" fill="#8E6655" />
<rect x="24" y="30" width="3" height="3" fill="#6D3F2C" />
<rect x="27" y="30" width="3" height="3" fill="#6D3F2C" />
<rect x="30" y="30" width="3" height="3" fill="#6D3F2C" />
<rect x="33" y="30" width="3" height="3" fill="#6D3F2C" />
<rect x="36" y="30" width="3" height="3" fill="#795241" />
<rect x="39" y="30" width="3" height="3" fill="#795241" />
<rect x="42" y="30" width="3" height="3" fill="#8E6655" />
<rect x="45" y="30" width="3" height="3" fill="#8E6655" />
<rect x="48" y="30" width="3" height="3" fill="#8E6655" />
<rect x="51" y="30" width="3" height="3" fill="#8E6655" />
<rect x="54" y="30" width="3" height="3" fill="#8E6655" />
<rect x="57" y="30" width="3" height="3" fill="#795241" />
<rect x="60" y="30" width="3" height="3" fill="#795241" />
<rect x="63" y="30" width="3" height="3" fill="#6D3F2C" />
<rect x="66" y="30" width="3" height="3" fill="#6D3F2C" />
<rect x="69" y="30" width="3" height="3" fill="#6D3F2C" />
<rect x="72" y="30" width="3" height="3" fill="#6D3F2C" />
<rect x="75" y="30" width="3" height="3" fill="#6D3F2C" />
<rect x="78" y="30" width="3" height="3" fill="#6D3F2C" />
<rect x="81" y="30" width="3" height="3" fill="#8E6655" />
<rect x="84" y="30" width="3" height="3" fill="#8E6655" />
<rect x="87" y="30" width="3" height="3" fill="#8E6655" />
<rect x="3" y="33" width="3" height="3" fill="#6D3F2C" />
<rect x="6" y="33" width="3" height="3" fill="#6D3F2C" />
<rect x="9" y="33" width="3" height="3" fill="#6D3F2C" />
<rect x="12" y="33" width="3" height="3" fill="#6D3F2C" />
<rect x="15" y="33" width="3" height="3" fill="#6D3F2C" />
<rect x="18" y="33" width="3" height="3" fill="#6D3F2C" />
<rect x="21" y="33" width="3" height="3" fill="#6D3F2C" />
<rect x="24" y="33" width="3" height="3" fill="#795241" />
<rect x="27" y="33" width="3" height="3" fill="#795241" />
<rect x="30" y="33" width="3" height="3" fill="#8E6655" />
<rect x="33" y="33" width="3" height="3" fill="#8E6655" />
<rect x="36" y="33" width="3" height="3" fill="#795241" />
<rect x="39" y="33" width="3" height="3" fill="#6D3F2C" />
<rect x="42" y="33" width="3" height="3" fill="#6D3F2C" />
<rect x="45" y="33" width="3" height="3" fill="#6D3F2C" />
<rect x="48" y="33" width="3" height="3" fill="#6D3F2C" />
<rect x="51" y="33" width="3" height="3" fill="#6D3F2C" />
<rect x="54" y="33" width="3" height="3" fill="#6D3F2C" />
<rect x="57" y="33" width="3" height="3" fill="#6D3F2C" />
<rect x="60" y="33" width="3" height="3" fill="#6D3F2C" />
<rect x="63" y="33" width="3" height="3" fill="#795241" />
<rect x="66" y="33" width="3" height="3" fill="#8E6655" />
<rect x="69" y="33" width="3" height="3" fill="#8E6655" />
<rect x="72" y="33" width="3" height="3" fill="#8E6655" />
<rect x="75" y="33" width="3" height="3" fill="#795241" />
<rect x="78" y="33" width="3" height="3" fill="#795241" />
<rect x="81" y="33" width="3" height="3" fill="#6D3F2C" />
<rect x="84" y="33" width="3" height="3" fill="#6D3F2C" />
<rect x="69" y="36" width="3" height="3" fill="#6D3F2C" />
<rect x="72" y="36" width="3" height="3" fill="#795241" />
<rect x="75" y="36" width="3" height="3" fill="#8E6655" />
<rect x="78" y="36" width="3" height="3" fill="#8E6655" />
<rect x="81" y="36" width="3" height="3" fill="#795241" />
<rect x="69" y="39" width="3" height="3" fill="#795241" />
<rect x="72" y="39" width="3" height="3" fill="#6D3F2C" />
<rect x="75" y="39" width="3" height="3" fill="#6D3F2C" />
<rect x="78" y="39" width="3" height="3" fill="#6D3F2C" />
<rect x="69" y="42" width="3" height="3" fill="#8E6655" />
<rect x="72" y="42" width="3" height="3" fill="#8E6655" />
<rect x="75" y="42" width="3" height="3" fill="#795241" />
<rect x="69" y="45" width="3" height="3" fill="#6D3F2C" />
<rect x="72" y="45" width="3" height="3" fill="#6D3F2C" />
</svg>