<?xml version="1.0" encoding="UTF-8" ?>
<svg version="1.1" width="96" height="24" xmlns="http://www.w3.org/2000/svg" shape-rendering="crispEdges">
<rect x="0" y="0" width="3" height="3" fill="#CCDED9" />
<rect x="3" y="0" width="3" height="3" fill="#CCDED9" />
<rect x="6" y="0" width="3" height="3" fill="#DFEEED" />
<rect x="9" y="0" width="3" height="3" fill="#DFEEED" />
<rect x="12" y="0" width="3" height="3" fill="#DFEEED" />
<rect x="15" y="0" width="3" height="3" fill="#DFEEED" />
<rect x="18" y="0" width="3" height="3" fill="#DFEEED" />
<rect x="21" y="0" width="3" height="3" fill="#DFEEED" />
<rect x="24" y="0" width="3" height="3" fill="#CCDED9" />
<rect x="27" y="0" width="3" height="3" fill="#CCDED9" />
<rect x="30" y="0" width="3" height="3" fill="#DFEEED" />
<rect x="33" y="0" width="3" height="3" fill="#759711" />
<rect x="36" y="0" width="3" height="3" fill="#DFEEED" />
<rect x="39" y="0" width="3" height="3" fill="#DFEEED" />
<rect x="42" y="0" width="3" height="3" fill="#DFEEED" />
<rect x="45" y="0" width="3" height="3" fill="#DFEEED" />
<rect x="48" y="0" width="3" height="3" fill="#CCDED9" />
<rect x="51" y="0" width="3" height="3" fill="#CCDED9" />
<rect x="54" y="0" width="3" height="3" fill="#DFEEED" />
<rect x="57" y="0" width="3" height="3" fill="#DFEEED" />
<rect x="60" y="0" width="3" height="3" fill="#DFEEED" />
<rect x="63" y="0" width="3" height="3" fill="#DFEEED" />
<rect x="66" y="0" width="3" height="3" fill="#DFEEED" />
<rect x="69" y="0" width="3" height="3" fill="#DFEEED" />
<rect x="72" y="0" width="3" height="3" fill="#CCDED9" />
<rect x="75" y="0" width="3" height="3" fill="#CCDED9" />
<rect x="78" y="0" width="3" height="3" fill="#DFEEED" />
<rect x="81" y="0" width="3" height="3" fill="#DFEEED" />
<rect x="84" y="0" width="3" height="3" fill="#006905" />
<rect x="87" y="0" width="3" height="3" fill="#DFEEED" />
<rect x="90" y="0" width="3" height="3" fill="#DFEEED" />
<rect x="93" y="0" width="3" height="3" fill="#DFEEED" />
<rect x="0" y="3" width="3" height="3" fill="#CCDED9" />
<rect x="3" y="3" width="3" height="3" fill="#3D8600" />
<rect x="6" y="3" width="3" height="3" fill="#DFEEED" />
<rect x="9" y="3" width="3" height="3" fill="#00964E" />
<rect x="12" y="3" width="3" height="3" fill="#DFEEED" />
<rect x="15" y="3" width="3" height="3" fill="#DFEEED" />
<rect x="18" y="3" width="3" height="3" fill="#759711" />
<rect x="21" y="3" width="3" height="3" fill="#DFEEED" />
<rect x="24" y="3" width="3" height="3" fill="#759711" />
<rect x="27" y="3" width="3" height="3" fill="#CCDED9" />
<rect x="30" y="3" width="3" height="3" fill="#DFEEED" />
<rect x="33" y="3" width="3" height="3" fill="#DFEEED" />
<rect x="36" y="3" width="3" height="3" fill="#DFEEED" />
<rect x="39" y="3" width="3" height="3" fill="#006905" />
<rect x="42" y="3" width="3" height="3" fill="#DFEEED" />
<rect x="45" y="3" width="3" height="3" fill="#DFEEED" />
<rect x="48" y="3" width="3" height="3" fill="#047D0A" />
<rect x="51" y="3" width="3" height="3" fill="#CCDED9" />
<rect x="54" y="3" width="3" height="3" fill="#DFEEED" />
<rect x="57" y="3" width="3" height="3" fill="#DFEEED" />
<rect x="60" y="3" width="3" height="3" fill="#DFEEED" />
<rect x="63" y="3" width="3" height="3" fill="#759711" />
<rect x="66" y="3" width="3" height="3" fill="#DFEEED" />
<rect x="69" y="3" width="3" height="3" fill="#DFEEED" />
<rect x="72" y="3" width="3" height="3" fill="#CCDED9" />
<rect x="75" y="3" width="3" height="3" fill="#80E6FF" />
<rect x="78" y="3" width="3" height="3" fill="#DFEEED" />
<rect x="81" y="3" width="3" height="3" fill="#DFEEED" />
<rect x="84" y="3" width="3" height="3" fill="#DFEEED" />
<rect x="87" y="3" width="3" height="3" fill="#759711" />
<rect x="90" y="3" width="3" height="3" fill="#DFEEED" />
<rect x="93" y="3" width="3" height="3" fill="#DFEEED" />
<rect x="0" y="6" width="3" height="3" fill="#00964E" />
<rect x="3" y="6" width="3" height="3" fill="#DFEEED" />
<rect x="6" y="6" width="3" height="3" fill="#CCDED9" />
<rect x="9" y="6" width="3" height="3" fill="#CCDED9" />
<rect x="12" y="6" width="3" height="3" fill="#CCDED9" />
<rect x="15" y="6" width="3" height="3" fill="#FFB1F5" />
<rect x="18" y="6" width="3" height="3" fill="#CCDED9" />
<rect x="21" y="6" width="3" height="3" fill="#CCDED9" />
<rect x="24" y="6" width="3" height="3" fill="#DFEEED" />
<rect x="27" y="6" width="3" height="3" fill="#00964E" />
<rect x="30" y="6" width="3" height="3" fill="#CCDED9" />
<rect x="33" y="6" width="3" height="3" fill="#006905" />
<rect x="36" y="6" width="3" height="3" fill="#759711" />
<rect x="39" y="6" width="3" height="3" fill="#CCDED9" />
<rect x="42" y="6" width="3" height="3" fill="#CCDED9" />
<rect x="45" y="6" width="3" height="3" fill="#CCDED9" />
<rect x="48" y="6" width="3" height="3" fill="#FFB1F5" />
<rect x="51" y="6" width="3" height="3" fill="#3D8600" />
<rect x="54" y="6" width="3" height="3" fill="#CCDED9" />
<rect x="57" y="6" width="3" height="3" fill="#00964E" />
<rect x="60" y="6" width="3" height="3" fill="#CCDED9" />
<rect x="63" y="6" width="3" height="3" fill="#00964E" />
<rect x="66" y="6" width="3" height="3" fill="#CCDED9" />
<rect x="69" y="6" width="3" height="3" fill="#CCDED9" />
<rect x="72" y="6" width="3" height="3" fill="#047D0A" />
<rect x="75" y="6" width="3" height="3" fill="#3D8600" />
<rect x="78" y="6" width="3" height="3" fill="#CCDED9" />
<rect x="81" y="6" width="3" height="3" fill="#759711" />
<rect x="84" y="6" width="3" height="3" fill="#CCDED9" />
<rect x="87" y="6" width="3" height="3" fill="#047D0A" />
<rect x="90" y="6" width="3" height="3" fill="#3D8600" />
<rect x="93" y="6" width="3" height="3" fill="#CCDED9" />
<rect x="0" y="9" width="3" height="3" fill="#DFEEED" />
<rect x="3" y="9" width="3" height="3" fill="#00964E" />
<rect x="6" y="9" width="3" height="3" fill="#759711" />
<rect x="9" y="9" width="3" height="3" fill="#CCDED9" />
<rect x="12" y="9" width="3" height="3" fill="#CCDED9" />
<rect x="15" y="9" width="3" height="3" fill="#CCDED9" />
<rect x="18" y="9" width="3" height="3" fill="#00964E" />
<rect x="21" y="9" width="3" height="3" fill="#759711" />
<rect x="24" y="9" width="3" height="3" fill="#DFEEED" />
<rect x="27" y="9" width="3" height="3" fill="#759711" />
<rect x="30" y="9" width="3" height="3" fill="#00964E" />
<rect x="33" y="9" width="3" height="3" fill="#00964E" />
<rect x="36" y="9" width="3" height="3" fill="#CCDED9" />
<rect x="39" y="9" width="3" height="3" fill="#759711" />
<rect x="42" y="9" width="3" height="3" fill="#3D8600" />
<rect x="45" y="9" width="3" height="3" fill="#CCDED9" />
<rect x="48" y="9" width="3" height="3" fill="#047D0A" />
<rect x="51" y="9" width="3" height="3" fill="#DFEEED" />
<rect x="54" y="9" width="3" height="3" fill="#00964E" />
<rect x="57" y="9" width="3" height="3" fill="#CCDED9" />
<rect x="60" y="9" width="3" height="3" fill="#CCDED9" />
<rect x="63" y="9" width="3" height="3" fill="#CCDED9" />
<rect x="66" y="9" width="3" height="3" fill="#00964E" />
<rect x="69" y="9" width="3" height="3" fill="#759711" />
<rect x="72" y="9" width="3" height="3" fill="#00964E" />
<rect x="75" y="9" width="3" height="3" fill="#CCDED9" />
<rect x="78" y="9" width="3" height="3" fill="#006905" />
<rect x="81" y="9" width="3" height="3" fill="#047D0A" />
<rect x="84" y="9" width="3" height="3" fill="#CCDED9" />
<rect x="87" y="9" width="3" height="3" fill="#00964E" />
<rect x="90" y="9" width="3" height="3" fill="#CCDED9" />
<rect x="93" y="9" width="3" height="3" fill="#759711" />
<rect x="0" y="12" width="3" height="3" fill="#047D0A" />
<rect x="3" y="12" width="3" height="3" fill="#006905" />
<rect x="6" y="12" width="3" height="3" fill="#DFEEED" />
<rect x="9" y="12" width="3" height="3" fill="#00964E" />
<rect x="12" y="12" width="3" height="3" fill="#CCDED9" />
<rect x="15" y="12" width="3" height="3" fill="#00964E" />
<rect x="18" y="12" width="3" height="3" fill="#759711" />
<rect x="21" y="12" width="3" height="3" fill="#047D0A" />
<rect x="24" y="12" width="3" height="3" fill="#00964E" />
<rect x="27" y="12" width="3" height="3" fill="#80E6FF" />
<rect x="30" y="12" width="3" height="3" fill="#3D8600" />
<rect x="33" y="12" width="3" height="3" fill="#047D0A" />
<rect x="36" y="12" width="3" height="3" fill="#00964E" />
<rect x="39" y="12" width="3" height="3" fill="#047D0A" />
<rect x="42" y="12" width="3" height="3" fill="#CCDED9" />
<rect x="45" y="12" width="3" height="3" fill="#047D0A" />
<rect x="48" y="12" width="3" height="3" fill="#00964E" />
<rect x="51" y="12" width="3" height="3" fill="#3D8600" />
<rect x="54" y="12" width="3" height="3" fill="#00964E" />
<rect x="57" y="12" width="3" height="3" fill="#759711" />
<rect x="60" y="12" width="3" height="3" fill="#00964E" />
<rect x="63" y="12" width="3" height="3" fill="#CCDED9" />
<rect x="66" y="12" width="3" height="3" fill="#759711" />
<rect x="69" y="12" width="3" height="3" fill="#00964E" />
<rect x="72" y="12" width="3" height="3" fill="#047D0A" />
<rect x="75" y="12" width="3" height="3" fill="#00964E" />
<rect x="78" y="12" width="3" height="3" fill="#3D8600" />
<rect x="81" y="12" width="3" height="3" fill="#759711" />
<rect x="84" y="12" width="3" height="3" fill="#00964E" />
<rect x="87" y="12" width="3" height="3" fill="#047D0A" />
<rect x="90" y="12" width="3" height="3" fill="#00964E" />
<rect x="93" y="12" width="3" height="3" fill="#CCDED9" />
<rect x="0" y="15" width="3" height="3" fill="#00964E" />
<rect x="3" y="15" width="3" height="3" fill="#80E6FF" />
<rect x="6" y="15" width="3" height="3" fill="#00964E" />
<rect x="9" y="15" width="3" height="3" fill="#047D0A" />
<rect x="12" y="15" width="3" height="3" fill="#006905" />
<rect x="15" y="15" width="3" height="3" fill="#759711" />
<rect x="18" y="15" width="3" height="3" fill="#00964E" />
<rect x="21" y="15" width="3" height="3" fill="#00964E" />
<rect x="24" y="15" width="3" height="3" fill="#047D0A" />
<rect x="27" y="15" width="3" height="3" fill="#759711" />
<rect x="30" y="15" width="3" height="3" fill="#00964E" />
<rect x="33" y="15" width="3" height="3" fill="#00964E" />
<rect x="36" y="15" width="3" height="3" fill="#759711" />
<rect x="39" y="15" width="3" height="3" fill="#00964E" />
<rect x="42" y="15" width="3" height="3" fill="#006905" />
<rect x="45" y="15" width="3" height="3" fill="#00964E" />
<rect x="48" y="15" width="3" height="3" fill="#006905" />
<rect x="51" y="15" width="3" height="3" fill="#759711" />
<rect x="54" y="15" width="3" height="3" fill="#006905" />
<rect x="57" y="15" width="3" height="3" fill="#00964E" />
<rect x="60" y="15" width="3" height="3" fill="#047D0A" />
<rect x="63" y="15" width="3" height="3" fill="#759711" />
<rect x="66" y="15" width="3" height="3" fill="#FFB1F5" />
<rect x="69" y="15" width="3" height="3" fill="#3D8600" />
<rect x="72" y="15" width="3" height="3" fill="#759711" />
<rect x="75" y="15" width="3" height="3" fill="#047D0A" />
<rect x="78" y="15" width="3" height="3" fill="#00964E" />
<rect x="81" y="15" width="3" height="3" fill="#00964E" />
<rect x="84" y="15" width="3" height="3" fill="#047D0A" />
<rect x="87" y="15" width="3" height="3" fill="#759711" />
<rect x="90" y="15" width="3" height="3" fill="#80E6FF" />
<rect x="93" y="15" width="3" height="3" fill="#047D0A" />
<rect x="0" y="18" width="3" height="3" fill="#00964E" />
<rect x="3" y="18" width="3" height="3" fill="#00964E" />
<rect x="6" y="18" width="3" height="3" fill="#759711" />
<rect x="9" y="18" width="3" height="3" fill="#759711" />
<rect x="12" y="18" width="3" height="3" fill="#00964E" />
<rect x="15" y="18" width="3" height="3" fill="#00964E" />
<rect x="18" y="18" width="3" height="3" fill="#3D8600" />
<rect x="21" y="18" width="3" height="3" fill="#3D8600" />
<rect x="24" y="18" width="3" height="3" fill="#00964E" />
<rect x="27" y="18" width="3" height="3" fill="#00964E" />
<rect x="30" y="18" width="3" height="3" fill="#759711" />
<rect x="33" y="18" width="3" height="3" fill="#759711" />
<rect x="36" y="18" width="3" height="3" fill="#00964E" />
<rect x="39" y="18" width="3" height="3" fill="#00964E" />
<rect x="42" y="18" width="3" height="3" fill="#047D0A" />
<rect x="45" y="18" width="3" height="3" fill="#047D0A" />
<rect x="48" y="18" width="3" height="3" fill="#00964E" />
<rect x="51" y="18" width="3" height="3" fill="#00964E" />
<rect x="54" y="18" width="3" height="3" fill="#3D8600" />
<rect x="57" y="18" width="3" height="3" fill="#3D8600" />
<rect x="60" y="18" width="3" height="3" fill="#00964E" />
<rect x="63" y="18" width="3" height="3" fill="#00964E" />
<rect x="66" y="18" width="3" height="3" fill="#759711" />
<rect x="69" y="18" width="3" height="3" fill="#759711" />
<rect x="72" y="18" width="3" height="3" fill="#00964E" />
<rect x="75" y="18" width="3" height="3" fill="#FBFF84" />
<rect x="78" y="18" width="3" height="3" fill="#006905" />
<rect x="81" y="18" width="3" height="3" fill="#006905" />
<rect x="84" y="18" width="3" height="3" fill="#00964E" />
<rect x="87" y="18" width="3" height="3" fill="#00964E" />
<rect x="90" y="18" width="3" height="3" fill="#047D0A" />
<rect x="93" y="18" width="3" height="3" fill="#047D0A" />
<rect x="0" y="21" width="3" height="3" fill="#00964E" />
<rect x="3" y="21" width="3" height="3" fill="#00964E" />
<rect x="6" y="21" width="3" height="3" fill="#759711" />
<rect x="9" y="21" width="3" height="3" fill="#759711" />
<rect x="12" y="21" width="3" height="3" fill="#00964E" />
<rect x="15" y="21" width="3" height="3" fill="#FBFF84" />
<rect x="18" y="21" width="3" height="3" fill="#3D8600" />
<rect x="21" y="21" width="3" height="3" fill="#3D8600" />
<rect x="24" y="21" width="3" height="3" fill="#00964E" />
<rect x="27" y="21" width="3" height="3" fill="#00964E" />
<rect x="30" y="21" width="3" height="3" fill="#759711" />
<rect x="33" y="21" width="3" height="3" fill="#759711" />
<rect x="36" y="21" width="3" height="3" fill="#00964E" />
<rect x="39" y="21" width="3" height="3" fill="#00964E" />
<rect x="42" y="21" width="3" height="3" fill="#047D0A" />
<rect x="45" y="21" width="3" height="3" fill="#047D0A" />
<rect x="48" y="21" width="3" height="3" fill="#00964E" />
<rect x="51" y="21" width="3" height="3" fill="#00964E" />
<rect x="54" y="21" width="3" height="3" fill="#3D8600" />
<rect x="57" y="21" width="3" height="3" fill="#3D8600" />
<rect x="60" y="21" width="3" height="3" fill="#00964E" />
<rect x="63" y="21" width="3" height="3" fill="#00964E" />
<rect x="66" y="21" width="3" height="3" fill="#759711" />
<rect x="69" y="21" width="3" height="3" fill="#759711" />
<rect x="72" y="21" width="3" height="3" fill="#00964E" />
<rect x="75" y="21" width="3" height="3" fill="#00964E" />
<rect x="78" y="21" width="3" height="3" fill="#006905" />
<rect x="81" y="21" width="3" height="3" fill="#006905" />
<rect x="84" y="21" width="3" height="3" fill="#00964E" />
<rect x="87" y="21" width="3" height="3" fill="#00964E" />
<rect x="90" y="21" width="3" height="3" fill="#047D0A" />
<rect x="93" y="21" width="3" height="3" fill="#047D0A" />
</svg>