<?xml version="1.0" encoding="UTF-8" ?>
<svg version="1.1" width="128" height="24" xmlns="http://www.w3.org/2000/svg" shape-rendering="crispEdges">
<rect x="118" y="0" width="2" height="2" fill="#80E6FF" />
<rect x="2" y="2" width="2" height="2" fill="#759711" />
<rect x="4" y="2" width="2" height="2" fill="#00964E" />
<rect x="6" y="2" width="2" height="2" fill="#449600" />
<rect x="24" y="2" width="2" height="2" fill="#449600" />
<rect x="26" y="2" width="2" height="2" fill="#759711" />
<rect x="28" y="2" width="2" height="2" fill="#449600" />
<rect x="30" y="2" width="2" height="2" fill="#449600" />
<rect x="38" y="2" width="2" height="2" fill="#80E6FF" />
<rect x="46" y="2" width="2" height="2" fill="#759711" />
<rect x="48" y="2" width="2" height="2" fill="#449600" />
<rect x="50" y="2" width="2" height="2" fill="#00964E" />
<rect x="52" y="2" width="2" height="2" fill="#449600" />
<rect x="54" y="2" width="2" height="2" fill="#759711" />
<rect x="72" y="2" width="2" height="2" fill="#449600" />
<rect x="74" y="2" width="2" height="2" fill="#449600" />
<rect x="76" y="2" width="2" height="2" fill="#759711" />
<rect x="78" y="2" width="2" height="2" fill="#449600" />
<rect x="80" y="2" width="2" height="2" fill="#449600" />
<rect x="96" y="2" width="2" height="2" fill="#449600" />
<rect x="98" y="2" width="2" height="2" fill="#00964E" />
<rect x="100" y="2" width="2" height="2" fill="#449600" />
<rect x="102" y="2" width="2" height="2" fill="#449600" />
<rect x="120" y="2" width="2" height="2" fill="#449600" />
<rect x="122" y="2" width="2" height="2" fill="#759711" />
<rect x="124" y="2" width="2" height="2" fill="#00964E" />
<rect x="0" y="4" width="2" height="2" fill="#449600" />
<rect x="2" y="4" width="2" height="2" fill="#047D0A" />
<rect x="4" y="4" width="2" height="2" fill="#006905" />
<rect x="6" y="4" width="2" height="2" fill="#047D0A" />
<rect x="8" y="4" width="2" height="2" fill="#759711" />
<rect x="10" y="4" width="2" height="2" fill="#449600" />
<rect x="12" y="4" width="2" height="2" fill="#006905" />
<rect x="14" y="4" width="2" height="2" fill="#DE76D0" />
<rect x="18" y="4" width="2" height="2" fill="#006905" />
<rect x="20" y="4" width="2" height="2" fill="#449600" />
<rect x="22" y="4" width="2" height="2" fill="#047D0A" />
<rect x="24" y="4" width="2" height="2" fill="#00964E" />
<rect x="26" y="4" width="2" height="2" fill="#006905" />
<rect x="28" y="4" width="2" height="2" fill="#006905" />
<rect x="30" y="4" width="2" height="2" fill="#759711" />
<rect x="32" y="4" width="2" height="2" fill="#047D0A" />
<rect x="34" y="4" width="2" height="2" fill="#006905" />
<rect x="40" y="4" width="2" height="2" fill="#006905" />
<rect x="42" y="4" width="2" height="2" fill="#047D0A" />
<rect x="44" y="4" width="2" height="2" fill="#449600" />
<rect x="46" y="4" width="2" height="2" fill="#047D0A" />
<rect x="48" y="4" width="2" height="2" fill="#006905" />
<rect x="50" y="4" width="2" height="2" fill="#006905" />
<rect x="52" y="4" width="2" height="2" fill="#006905" />
<rect x="54" y="4" width="2" height="2" fill="#00964E" />
<rect x="56" y="4" width="2" height="2" fill="#047D0A" />
<rect x="58" y="4" width="2" height="2" fill="#006905" />
<rect x="66" y="4" width="2" height="2" fill="#80E6FF" />
<rect x="68" y="4" width="2" height="2" fill="#047D0A" />
<rect x="70" y="4" width="2" height="2" fill="#449600" />
<rect x="72" y="4" width="2" height="2" fill="#047D0A" />
<rect x="74" y="4" width="2" height="2" fill="#006905" />
<rect x="76" y="4" width="2" height="2" fill="#3BC4E6" />
<rect x="78" y="4" width="2" height="2" fill="#006905" />
<rect x="80" y="4" width="2" height="2" fill="#449600" />
<rect x="82" y="4" width="2" height="2" fill="#00964E" />
<rect x="84" y="4" width="2" height="2" fill="#449600" />
<rect x="86" y="4" width="2" height="2" fill="#047D0A" />
<rect x="88" y="4" width="2" height="2" fill="#006905" />
<rect x="92" y="4" width="2" height="2" fill="#FFB1F5" />
<rect x="94" y="4" width="2" height="2" fill="#759711" />
<rect x="96" y="4" width="2" height="2" fill="#00964E" />
<rect x="98" y="4" width="2" height="2" fill="#006905" />
<rect x="100" y="4" width="2" height="2" fill="#006905" />
<rect x="102" y="4" width="2" height="2" fill="#00964E" />
<rect x="104" y="4" width="2" height="2" fill="#759711" />
<rect x="106" y="4" width="2" height="2" fill="#047D0A" />
<rect x="108" y="4" width="2" height="2" fill="#047D0A" />
<rect x="110" y="4" width="2" height="2" fill="#006905" />
<rect x="116" y="4" width="2" height="2" fill="#006905" />
<rect x="118" y="4" width="2" height="2" fill="#047D0A" />
<rect x="120" y="4" width="2" height="2" fill="#00964E" />
<rect x="122" y="4" width="2" height="2" fill="#047D0A" />
<rect x="124" y="4" width="2" height="2" fill="#006905" />
<rect x="126" y="4" width="2" height="2" fill="#006905" />
<rect x="0" y="6" width="2" height="2" fill="#759711" />
<rect x="2" y="6" width="2" height="2" fill="#006905" />
<rect x="6" y="6" width="2" height="2" fill="#006905" />
<rect x="8" y="6" width="2" height="2" fill="#047D0A" />
<rect x="10" y="6" width="2" height="2" fill="#FFB1F5" />
<rect x="12" y="6" width="2" height="2" fill="#759711" />
<rect x="14" y="6" width="2" height="2" fill="#006905" />
<rect x="16" y="6" width="2" height="2" fill="#006905" />
<rect x="18" y="6" width="2" height="2" fill="#759711" />
<rect x="20" y="6" width="2" height="2" fill="#00964E" />
<rect x="22" y="6" width="2" height="2" fill="#047D0A" />
<rect x="24" y="6" width="2" height="2" fill="#006905" />
<rect x="30" y="6" width="2" height="2" fill="#80E6FF" />
<rect x="32" y="6" width="2" height="2" fill="#047D0A" />
<rect x="34" y="6" width="2" height="2" fill="#00964E" />
<rect x="36" y="6" width="2" height="2" fill="#006905" />
<rect x="38" y="6" width="2" height="2" fill="#006905" />
<rect x="40" y="6" width="2" height="2" fill="#00964E" />
<rect x="42" y="6" width="2" height="2" fill="#759711" />
<rect x="44" y="6" width="2" height="2" fill="#047D0A" />
<rect x="46" y="6" width="2" height="2" fill="#006905" />
<rect x="48" y="6" width="2" height="2" fill="#759711" />
<rect x="54" y="6" width="2" height="2" fill="#006905" />
<rect x="56" y="6" width="2" height="2" fill="#759711" />
<rect x="58" y="6" width="2" height="2" fill="#00964E" />
<rect x="60" y="6" width="2" height="2" fill="#006905" />
<rect x="62" y="6" width="2" height="2" fill="#006905" />
<rect x="64" y="6" width="2" height="2" fill="#00964E" />
<rect x="66" y="6" width="2" height="2" fill="#047D0A" />
<rect x="68" y="6" width="2" height="2" fill="#00964E" />
<rect x="70" y="6" width="2" height="2" fill="#047D0A" />
<rect x="72" y="6" width="2" height="2" fill="#006905" />
<rect x="80" y="6" width="2" height="2" fill="#006905" />
<rect x="82" y="6" width="2" height="2" fill="#759711" />
<rect x="84" y="6" width="2" height="2" fill="#047D0A" />
<rect x="86" y="6" width="2" height="2" fill="#00964E" />
<rect x="88" y="6" width="2" height="2" fill="#047D0A" />
<rect x="90" y="6" width="2" height="2" fill="#006905" />
<rect x="92" y="6" width="2" height="2" fill="#047D0A" />
<rect x="94" y="6" width="2" height="2" fill="#047D0A" />
<rect x="96" y="6" width="2" height="2" fill="#006905" />
<rect x="100" y="6" width="2" height="2" fill="#759711" />
<rect x="102" y="6" width="2" height="2" fill="#006905" />
<rect x="104" y="6" width="2" height="2" fill="#449600" />
<rect x="106" y="6" width="2" height="2" fill="#00964E" />
<rect x="108" y="6" width="2" height="2" fill="#449600" />
<rect x="110" y="6" width="2" height="2" fill="#047D0A" />
<rect x="112" y="6" width="2" height="2" fill="#006905" />
<rect x="114" y="6" width="2" height="2" fill="#3BC4E6" />
<rect x="116" y="6" width="2" height="2" fill="#047D0A" />
<rect x="118" y="6" width="2" height="2" fill="#00964E" />
<rect x="120" y="6" width="2" height="2" fill="#006905" />
<rect x="124" y="6" width="2" height="2" fill="#00964E" />
<rect x="126" y="6" width="2" height="2" fill="#00964E" />
<rect x="0" y="8" width="2" height="2" fill="#00964E" />
<rect x="2" y="8" width="2" height="2" fill="#3BC4E6" />
<rect x="6" y="8" width="2" height="2" fill="#759711" />
<rect x="12" y="8" width="2" height="2" fill="#047D0A" />
<rect x="14" y="8" width="2" height="2" fill="#006905" />
<rect x="16" y="8" width="2" height="2" fill="#449600" />
<rect x="18" y="8" width="2" height="2" fill="#449600" />
<rect x="22" y="8" width="2" height="2" fill="#006905" />
<rect x="24" y="8" width="2" height="2" fill="#006905" />
<rect x="30" y="8" width="2" height="2" fill="#006905" />
<rect x="34" y="8" width="2" height="2" fill="#449600" />
<rect x="36" y="8" width="2" height="2" fill="#759711" />
<rect x="38" y="8" width="2" height="2" fill="#3BC4E6" />
<rect x="40" y="8" width="2" height="2" fill="#006905" />
<rect x="44" y="8" width="2" height="2" fill="#00964E" />
<rect x="48" y="8" width="2" height="2" fill="#00964E" />
<rect x="58" y="8" width="2" height="2" fill="#449600" />
<rect x="60" y="8" width="2" height="2" fill="#449600" />
<rect x="62" y="8" width="2" height="2" fill="#00964E" />
<rect x="64" y="8" width="2" height="2" fill="#047D0A" />
<rect x="66" y="8" width="2" height="2" fill="#759711" />
<rect x="72" y="8" width="2" height="2" fill="#006905" />
<rect x="80" y="8" width="2" height="2" fill="#006905" />
<rect x="86" y="8" width="2" height="2" fill="#80E6FF" />
<rect x="88" y="8" width="2" height="2" fill="#449600" />
<rect x="90" y="8" width="2" height="2" fill="#449600" />
<rect x="92" y="8" width="2" height="2" fill="#449600" />
<rect x="100" y="8" width="2" height="2" fill="#00964E" />
<rect x="104" y="8" width="2" height="2" fill="#006905" />
<rect x="108" y="8" width="2" height="2" fill="#FFB1F5" />
<rect x="110" y="8" width="2" height="2" fill="#449600" />
<rect x="112" y="8" width="2" height="2" fill="#759711" />
<rect x="114" y="8" width="2" height="2" fill="#00964E" />
<rect x="116" y="8" width="2" height="2" fill="#449600" />
<rect x="120" y="8" width="2" height="2" fill="#759711" />
<rect x="6" y="10" width="2" height="2" fill="#006905" />
<rect x="14" y="10" width="2" height="2" fill="#047D0A" />
<rect x="24" y="10" width="2" height="2" fill="#047D0A" />
<rect x="28" y="10" width="2" height="2" fill="#00964E" />
<rect x="38" y="10" width="2" height="2" fill="#00964E" />
<rect x="46" y="10" width="2" height="2" fill="#759711" />
<rect x="60" y="10" width="2" height="2" fill="#DE76D0" />
<rect x="62" y="10" width="2" height="2" fill="#047D0A" />
<rect x="80" y="10" width="2" height="2" fill="#047D0A" />
<rect x="90" y="10" width="2" height="2" fill="#759711" />
<rect x="102" y="10" width="2" height="2" fill="#047D0A" />
<rect x="104" y="10" width="2" height="2" fill="#759711" />
<rect x="112" y="10" width="2" height="2" fill="#006905" />
<rect x="116" y="10" width="2" height="2" fill="#006905" />
<rect x="120" y="10" width="2" height="2" fill="#047D0A" />
<rect x="6" y="12" width="2" height="2" fill="#047D0A" />
<rect x="16" y="12" width="2" height="2" fill="#759711" />
<rect x="22" y="12" width="2" height="2" fill="#00964E" />
<rect x="26" y="12" width="2" height="2" fill="#759711" />
<rect x="38" y="12" width="2" height="2" fill="#759711" />
<rect x="46" y="12" width="2" height="2" fill="#00964E" />
<rect x="64" y="12" width="2" height="2" fill="#047D0A" />
<rect x="82" y="12" width="2" height="2" fill="#759711" />
<rect x="88" y="12" width="2" height="2" fill="#006905" />
<rect x="104" y="12" width="2" height="2" fill="#047D0A" />
<rect x="114" y="12" width="2" height="2" fill="#006905" />
<rect x="120" y="12" width="2" height="2" fill="#00964E" />
<rect x="8" y="14" width="2" height="2" fill="#00964E" />
<rect x="18" y="14" width="2" height="2" fill="#047D0A" />
<rect x="20" y="14" width="2" height="2" fill="#759711" />
<rect x="26" y="14" width="2" height="2" fill="#449600" />
<rect x="36" y="14" width="2" height="2" fill="#759711" />
<rect x="64" y="14" width="2" height="2" fill="#759711" />
<rect x="84" y="14" width="2" height="2" fill="#00964E" />
<rect x="86" y="14" width="2" height="2" fill="#047D0A" />
<rect x="104" y="14" width="2" height="2" fill="#00964E" />
<rect x="122" y="14" width="2" height="2" fill="#759711" />
<rect x="36" y="16" width="2" height="2" fill="#047D0A" />
<rect x="64" y="16" width="2" height="2" fill="#00964E" />
<rect x="86" y="16" width="2" height="2" fill="#759711" />
<rect x="106" y="16" width="2" height="2" fill="#047D0A" />
<rect x="122" y="16" width="2" height="2" fill="#449600" />
<rect x="36" y="18" width="2" height="2" fill="#00964E" />
<rect x="64" y="18" width="2" height="2" fill="#006905" />
<rect x="86" y="18" width="2" height="2" fill="#449600" />
<rect x="106" y="18" width="2" height="2" fill="#006905" />
<rect x="122" y="18" width="2" height="2" fill="#047D0A" />
<rect x="36" y="20" width="2" height="2" fill="#759711" />
<rect x="86" y="20" width="2" height="2" fill="#047D0A" />
<rect x="86" y="22" width="2" height="2" fill="#006905" />
</svg>